# xmcd
#
# Track frame offsets:
#	150
#	12770
#	24770
#	35126
#	50278
#	61793
#	74544
#	84212
#	96771
#	113005
#	125188
#	141959
#	153226
#	165567
#	178827
#
# Disc length: 2572 seconds
#
# Revision: 0
# Processed by: cddbd v1.5.2PL0 Copyright (c) Steve Scherf et al.
# Submitted via: EasyCDDAExtractor 16.0.6.1
#
DISCID=be0a0a0f
DTITLE=Various Artist - Hillbilly Flatbox
DYEAR=2012
DGENRE=
TTITLE0=Hillbilly Casino - Up`n at ' Em Old Saint Nick
TTITLE1=Flatbroke Trio - Live Fast Die Young
TTITLE2=Shoebox Revue -  Your Line Was Busy
TTITLE3=Hillbilly Casino -  Cry, Cry, Cry
TTITLE4=Flatbroke Trio - Broken Heart
TTITLE5=Shoebox Revue - Crazy Date
TTITLE6=Hillbilly Casino - Maybellene
TTITLE7=Flatbroke Trio - Snaggle Tooth Ann
TTITLE8=Shoebox Revue -  I Just Wanna Make Love To You
TTITLE9=Hillbilly Casino -  Rockin’ Bones
TTITLE10=Flatbroke Trio - Wagon Wheel
TTITLE11=Shoebox Revue - Tell Me, Tell Me
TTITLE12=Hillbilly Casino - Mystery Dance
TTITLE13=Flatbroke Trio - Tomorrow Is A Long Time
TTITLE14=Shoebox Revue - Nine Lives
EXTD=
EXTT0=
EXTT1=
EXTT2=
EXTT3=
EXTT4=
EXTT5=
EXTT6=
EXTT7=
EXTT8=
EXTT9=
EXTT10=
EXTT11=
EXTT12=
EXTT13=
EXTT14=
PLAYORDER=
